<svg width="40" height="40" viewBox="0 0 40 40" fill="none" xmlns="http://www.w3.org/2000/svg">
<path d="M39.1643 10.3723C38.7044 8.65117 37.3491 7.29594 35.628 6.83594C32.5083 6 20 6 20 6C20 6 7.49164 6 4.37195 6.83594C2.65117 7.29594 1.29562 8.65117 0.835703 10.3723C0 13.4916 0 20.0002 0 20.0002C0 20.0002 0 26.5087 0.835703 29.6277C1.29562 31.3488 2.65117 32.7045 4.37195 33.1644C7.49164 34 20 34 20 34C20 34 32.5083 34 35.628 33.1644C37.3491 32.7045 38.7044 31.3488 39.1643 29.6277C39.9999 26.5087 39.9999 20.0002 39.9999 20.0002C39.9999 20.0002 39.9999 13.4916 39.1643 10.3723ZM15.9998 26.0003V14.0001L26.3919 20.0002L15.9998 26.0003Z" fill="#04B3B3"/>
</svg>
