<svg width="40" height="40" viewBox="0 0 40 40" fill="none" xmlns="http://www.w3.org/2000/svg">
<path d="M20.2567 17.8827L13.4812 8.4021H9.86743L18.2606 20.1453L19.3171 21.6225L26.5011 31.6827H30.1149L21.3088 19.3599L20.2567 17.8827Z" fill="#04B3B3"/>
<path d="M35.2664 1.66675H4.73376C3.03984 1.66675 1.66675 3.03984 1.66675 4.73376V35.2664C1.66675 36.9603 3.03984 38.3334 4.73376 38.3334H35.2664C36.9603 38.3334 38.3334 36.9603 38.3334 35.2664V4.73376C38.3334 3.03984 36.9603 1.66675 35.2664 1.66675ZM25.3923 33.3334L18.1214 22.9784L9.01915 33.3334H6.66675L17.0782 21.4923L6.66675 6.66675H14.6078L21.4914 16.47L30.116 6.66675H32.4683L22.5401 17.9595L33.3334 33.3334H25.3923Z" fill="#04B3B3"/>
</svg>
